<mxfile host="app.diagrams.net" modified="2021-08-14T03:13:55.555Z" agent="5.0 (Windows NT 10.0; Win64; x64) AppleWebKit/537.36 (KHTML, like Gecko) Chrome/86.0.4240.183 Safari/537.36" etag="-8oPZlTfZuZc3HZGEXPq" version="14.9.3" type="github">
  <diagram id="92TPqgg9U-LKcv9ktotK" name="第 1 页">
    <mxGraphModel dx="1422" dy="762" grid="1" gridSize="10" guides="1" tooltips="1" connect="1" arrows="1" fold="1" page="1" pageScale="1" pageWidth="1169" pageHeight="827" math="0" shadow="0">
      <root>
        <mxCell id="0" />
        <mxCell id="1" parent="0" />
        <mxCell id="9NFeEdoFs9OVHFyr24tn-1" value="&lt;b&gt;&lt;font style=&quot;font-size: 15px&quot;&gt;线程池&lt;/font&gt;&lt;/b&gt;" style="rounded=0;whiteSpace=wrap;html=1;fillColor=#ffff88;strokeColor=#36393d;" vertex="1" parent="1">
          <mxGeometry x="710" y="276" width="280" height="270" as="geometry" />
        </mxCell>
        <mxCell id="9NFeEdoFs9OVHFyr24tn-2" value="&lt;div style=&quot;font-size: 17px&quot;&gt;&lt;b&gt;&lt;font style=&quot;font-size: 17px&quot;&gt;ThreadPoolExecutor pool =&lt;/font&gt;&lt;/b&gt;&lt;/div&gt;&lt;div style=&quot;font-size: 17px&quot;&gt;&lt;b&gt;&lt;font style=&quot;font-size: 17px&quot;&gt;		&amp;nbsp; &amp;nbsp; &amp;nbsp; &amp;nbsp; new ThreadPoolExecutor(1,2,3, TimeUnit.SECONDS, new LinkedBlockingDeque&amp;lt;&amp;gt;(3));&lt;/font&gt;&lt;/b&gt;&lt;/div&gt;&lt;div style=&quot;font-size: 17px&quot;&gt;&lt;b&gt;&lt;font style=&quot;font-size: 17px&quot;&gt;&lt;br&gt;&lt;/font&gt;&lt;/b&gt;&lt;/div&gt;&lt;div style=&quot;font-size: 17px&quot;&gt;&lt;b&gt;&lt;font style=&quot;font-size: 17px&quot;&gt;核心线程数（每个线程的任务数) 1,线程池的最大线程数量 2, 线程过期时间&lt;/font&gt;&lt;/b&gt;&lt;b&gt;3，队列最大等待任务数 3&lt;/b&gt;&lt;/div&gt;" style="rounded=1;whiteSpace=wrap;html=1;fillColor=#ffcccc;strokeColor=#36393d;" vertex="1" parent="1">
          <mxGeometry x="160" y="90" width="850" height="110" as="geometry" />
        </mxCell>
        <mxCell id="9NFeEdoFs9OVHFyr24tn-3" value="线程1" style="shape=tape;whiteSpace=wrap;html=1;fillColor=#fff2cc;strokeColor=#d6b656;" vertex="1" parent="1">
          <mxGeometry x="760" y="290" width="180" height="100" as="geometry" />
        </mxCell>
        <mxCell id="9NFeEdoFs9OVHFyr24tn-4" value="&lt;span&gt;线程2&lt;/span&gt;" style="shape=tape;whiteSpace=wrap;html=1;fillColor=#fff2cc;strokeColor=#d6b656;" vertex="1" parent="1">
          <mxGeometry x="760" y="435" width="180" height="100" as="geometry" />
        </mxCell>
        <mxCell id="9NFeEdoFs9OVHFyr24tn-5" value="任务1" style="ellipse;whiteSpace=wrap;html=1;aspect=fixed;fillColor=#dae8fc;strokeColor=#6c8ebf;" vertex="1" parent="1">
          <mxGeometry x="770" y="330" width="50" height="50" as="geometry" />
        </mxCell>
        <mxCell id="9NFeEdoFs9OVHFyr24tn-6" value="任务1" style="ellipse;whiteSpace=wrap;html=1;aspect=fixed;fillColor=#dae8fc;strokeColor=#6c8ebf;" vertex="1" parent="1">
          <mxGeometry x="780" y="480" width="50" height="50" as="geometry" />
        </mxCell>
        <mxCell id="9NFeEdoFs9OVHFyr24tn-7" value="&lt;font style=&quot;font-size: 14px&quot;&gt;&lt;b&gt;任务队列&lt;/b&gt;&lt;/font&gt;" style="shape=process;whiteSpace=wrap;html=1;backgroundOutline=1;align=left;fillColor=#ffcc99;strokeColor=#36393d;" vertex="1" parent="1">
          <mxGeometry x="80" y="315" width="380" height="60" as="geometry" />
        </mxCell>
        <mxCell id="9NFeEdoFs9OVHFyr24tn-8" value="任务1" style="ellipse;whiteSpace=wrap;html=1;aspect=fixed;fillColor=#dae8fc;strokeColor=#6c8ebf;" vertex="1" parent="1">
          <mxGeometry x="360" y="320" width="50" height="50" as="geometry" />
        </mxCell>
        <mxCell id="9NFeEdoFs9OVHFyr24tn-9" value="任务2" style="ellipse;whiteSpace=wrap;html=1;aspect=fixed;fillColor=#dae8fc;strokeColor=#6c8ebf;" vertex="1" parent="1">
          <mxGeometry x="290" y="320" width="50" height="50" as="geometry" />
        </mxCell>
        <mxCell id="9NFeEdoFs9OVHFyr24tn-10" value="任务3" style="ellipse;whiteSpace=wrap;html=1;aspect=fixed;fillColor=#dae8fc;strokeColor=#6c8ebf;" vertex="1" parent="1">
          <mxGeometry x="220" y="320" width="50" height="50" as="geometry" />
        </mxCell>
        <mxCell id="9NFeEdoFs9OVHFyr24tn-11" value="当任务队列和线程都满了时，再加入任务会抛出异常" style="shape=document;whiteSpace=wrap;html=1;boundedLbl=1;fillColor=#f8cecc;strokeColor=#b85450;" vertex="1" parent="1">
          <mxGeometry x="160" y="435" width="120" height="80" as="geometry" />
        </mxCell>
        <mxCell id="9NFeEdoFs9OVHFyr24tn-12" value="" style="endArrow=classic;html=1;entryX=0;entryY=0.25;entryDx=0;entryDy=0;" edge="1" parent="1" source="9NFeEdoFs9OVHFyr24tn-7" target="9NFeEdoFs9OVHFyr24tn-1">
          <mxGeometry width="50" height="50" relative="1" as="geometry">
            <mxPoint x="490" y="390" as="sourcePoint" />
            <mxPoint x="540" y="340" as="targetPoint" />
          </mxGeometry>
        </mxCell>
      </root>
    </mxGraphModel>
  </diagram>
</mxfile>
